<svg xmlns="http://www.w3.org/2000/svg"
width="481.000000px" height="753.000000px" viewBox="0 0 481.000000 753.000000">

    <g transform="translate(0.000000,753.000000) scale(0.100000,-0.100000)" fill="#fff" stroke="none">

        <!-- Start Letter (ا) -->

        <path id="letter-alif" d="M4305 4269 c-11 -17 -75 -229 -81 -269 -5 -28 2 -54 29 -116 39 -87
        33 -39 82 -599 27 -301 141 -1324 221 -1975 49 -399 58 -564 40 -786 -9 -117
        -3 -140 31 -112 26 21 80 147 97 228 68 317 52 560 -129 2020 -41 327 -81 660
        -89 740 -9 80 -18 168 -22 195 l-5 50 38 -36 c130 -121 166 -119 123 9 -22 66
        -200 463 -266 595 -32 63 -54 81 -69 56z"/>

        <!-- End Letter (ا) -->

        <!-- Start Letters (لي) -->

        <path id="letter-lam-ya" d="M2868 7474 c-12 -20 -98 -294 -98 -312 0 -10 13 -38 29 -63 27 -42
        29 -54 45 -253 23 -283 45 -475 121 -1030 110 -811 155 -1190 155 -1316 0 -58
        -4 -72 -30 -108 -85 -118 -339 -249 -519 -268 -36 -3 -74 -10 -83 -15 -25 -13
        -48 -99 -55 -205 l-6 -91 64 -21 c101 -33 197 -57 452 -116 328 -76 497 -134
        497 -171 0 -21 -109 -115 -238 -205 -483 -337 -1029 -554 -1453 -578 l-116 -7
        -78 -83 -78 -83 -1 -67 c0 -67 19 -142 66 -254 l20 -47 52 21 c28 11 78 28
        111 38 54 16 60 20 56 41 -13 71 -13 71 74 86 279 46 636 197 1023 431 317
        192 523 349 606 462 58 79 117 254 124 366 12 210 -88 299 -412 372 -89 20
        -163 37 -165 39 -2 1 19 27 46 56 82 87 135 217 166 407 33 202 34 197 -52
        965 -45 396 -100 873 -123 1060 l-43 340 70 -72 c39 -40 75 -73 82 -73 56 0
        -13 212 -177 540 -88 176 -122 231 -132 214z"/>

        <!-- End Letters (لي) -->

        <!-- Start Letter (س) -->

        <path id="letter-sin" d="M1828 1854 c-44 -19 -45 -22 -17 -58 l20 -26 -30 0 c-46 0 -132 -20
        -171 -40 -118 -61 -178 -228 -135 -376 28 -98 80 -154 217 -236 l67 -40 -73
        -63 c-86 -75 -109 -116 -114 -205 -7 -122 54 -223 162 -270 105 -45 295 -57
        401 -26 89 27 157 64 153 84 -6 31 -76 56 -170 60 -86 4 -87 4 -148 -34 l-62
        -38 -19 23 c-11 13 -26 48 -35 79 -28 94 -3 181 70 252 l37 34 87 -22 c48 -12
        93 -22 100 -22 51 1 -52 99 -167 159 -115 59 -171 108 -208 177 -76 145 -45
        288 82 372 46 31 54 33 105 27 30 -4 64 -9 75 -11 11 -3 28 1 38 9 18 12 15
        19 -45 108 l-63 94 -60 2 c-37 2 -74 -4 -97 -13z"/>

        <!-- End Letter (س) -->

        <!-- Start Letter (ع) -->

        <path id="letter-ayn" d="M905 4579 c-211 -52 -408 -202 -504 -383 -73 -139 -100 -324 -66
        -454 21 -81 88 -211 148 -289 66 -86 226 -235 365 -342 67 -52 122 -96 122
        -98 0 -1 -24 -20 -52 -41 -285 -210 -645 -764 -757 -1162 -52 -188 -72 -327
        -72 -505 1 -395 154 -680 479 -893 168 -109 419 -208 657 -258 391 -82 711
        -95 990 -38 93 18 191 46 240 68 113 51 286 140 296 152 6 8 15 14 20 14 14 0
        97 60 209 151 121 98 315 307 420 452 19 27 44 60 56 75 38 48 133 208 178
        299 154 308 179 572 82 832 -86 225 -240 365 -446 405 -96 19 -267 15 -405 -9
        -231 -41 -549 -138 -1120 -342 -275 -99 -508 -175 -571 -187 -10 -2 -48 -13
        -84 -24 -151 -46 -282 -79 -460 -117 -109 -23 -190 -47 -197 -58 -13 -20 12
        -27 167 -43 25 -2 97 -11 160 -19 243 -31 316 -36 399 -30 111 8 145 12 211
        26 30 5 64 12 75 14 11 2 40 9 65 15 25 5 61 13 80 16 19 4 43 11 53 16 10 5
        32 11 49 13 17 2 81 22 142 43 61 22 143 50 181 62 39 12 133 45 210 72 77 28
        163 56 190 64 28 7 95 27 150 44 55 17 120 35 145 41 25 5 61 14 80 19 382 93
        653 68 774 -72 57 -67 75 -125 72 -240 -3 -109 -31 -201 -103 -338 -99 -189
        -298 -431 -503 -616 -129 -116 -340 -255 -511 -337 -91 -44 -267 -112 -313
        -121 -11 -3 -43 -9 -69 -14 -51 -10 -264 -8 -307 3 -14 4 -90 11 -170 15 -231
        15 -325 32 -531 100 -484 158 -743 378 -840 715 -33 112 -37 321 -9 455 42
        207 145 417 314 645 92 124 286 312 396 385 128 84 210 124 600 290 540 229
        744 321 780 352 29 24 170 267 170 293 0 9 -7 18 -15 21 -8 4 -183 -66 -388
        -154 -446 -192 -657 -280 -677 -283 -68 -12 -278 47 -400 112 -272 146 -546
        474 -558 667 -5 71 6 90 68 122 137 70 522 127 790 117 167 -6 214 -15 363
        -73 209 -80 206 -79 218 -67 33 33 -40 118 -192 219 -160 107 -324 172 -513
        205 -139 24 -228 23 -331 -2z"/>

        <!-- End Letter (ع) -->

        <!-- Start Dots -->

        <path id="letter-top-dot" d="M3199 2933 c-30 -32 -85 -117 -118 -181 -17 -34 -19 -46 -10 -63 23
        -44 177 -92 242 -75 17 4 41 30 73 78 26 40 64 94 86 119 l38 47 -107 47
        c-141 62 -170 66 -204 28z"/>

        <path id="letter-bottom-dot" d="M3189 2159 c-16 -17 -54 -76 -85 -130 -43 -76 -54 -102 -45 -113 24
        -29 156 -80 216 -84 l61 -4 26 39 c15 22 47 81 72 131 l46 91 -30 21 c-35 25
        -181 80 -211 80 -12 0 -34 -14 -50 -31z"/>

        <!-- End Dots -->

    </g>

</svg>